<svg width="38" height="39" viewBox="0 0 38 39" fill="none" xmlns="http://www.w3.org/2000/svg">
<path fill-rule="evenodd" clip-rule="evenodd" d="M2.16675 13.4566C2.16675 8.56599 6.16913 4.61914 11.0834 4.61914C13.6174 4.61914 15.8222 5.98339 17.3192 7.22422C18.0122 7.79861 18.5831 8.3711 19.0001 8.82485C19.4171 8.3711 19.9879 7.79861 20.6809 7.22422C22.178 5.98339 24.3828 4.61914 26.9167 4.61914C31.831 4.61914 35.8334 8.56599 35.8334 13.4566C35.8334 15.3487 35.455 18.474 33.3024 22.2084C31.1531 25.937 27.2665 30.2186 20.3345 34.4802L20.3305 34.4826C19.9296 34.7265 19.4694 34.8556 19.0001 34.8556C18.5308 34.8556 18.0705 34.7265 17.6696 34.4826L17.6657 34.4802C10.7337 30.2186 6.84704 25.937 4.69774 22.2084C2.54515 18.474 2.16675 15.3487 2.16675 13.4566ZM18.1987 10.9673L18.1941 10.9612L18.1696 10.9294C18.1467 10.8999 18.1109 10.8545 18.0629 10.7954C17.9669 10.6772 17.8223 10.5046 17.6345 10.2958C17.2576 9.87698 16.7129 9.31937 16.043 8.76406C14.6746 7.62989 12.9211 6.61914 11.0834 6.61914C7.25454 6.61914 4.16675 9.68962 4.16675 13.4566C4.16675 15.059 4.48105 17.8276 6.43048 21.2096C8.38297 24.5968 12.007 28.6533 18.7107 32.7749C18.798 32.8277 18.8981 32.8556 19.0001 32.8556C19.1021 32.8556 19.2022 32.8277 19.2895 32.7749C25.9931 28.6533 29.6172 24.5968 31.5697 21.2096C33.5191 17.8276 33.8334 15.059 33.8334 13.4566C33.8334 9.68962 30.7456 6.61914 26.9167 6.61914C25.0791 6.61914 23.3256 7.62989 21.9572 8.76406C21.2872 9.31937 20.7425 9.87698 20.3657 10.2958C20.1779 10.5046 20.0333 10.6772 19.9372 10.7954C19.8892 10.8545 19.8535 10.8999 19.8306 10.9294L19.8061 10.9612L19.8015 10.9673L19.8013 10.9676L19.8012 10.9677C19.6124 11.2203 19.3155 11.3691 19.0001 11.3691C18.6847 11.3691 18.3878 11.2203 18.199 10.9677L18.1989 10.9676L18.1987 10.9673Z" fill="#9BA0FC"/>
</svg>
