<svg width="177" height="42" viewBox="0 0 177 42" fill="none" xmlns="http://www.w3.org/2000/svg">
<path d="M51.102 16.692V18.372H55.19V20.864H51.102V24H47.798V14.2H55.764V16.692H51.102ZM59.583 17.168C60.143 16.524 60.969 16.202 62.061 16.202V19.002C61.809 18.9647 61.5757 18.946 61.361 18.946C60.2784 18.946 59.737 19.4967 59.737 20.598V24H56.573V16.342H59.583V17.168ZM71.0375 20.164C71.0375 20.2107 71.0235 20.458 70.9955 20.906H65.6755C65.7875 21.1953 65.9741 21.4193 66.2355 21.578C66.4968 21.7273 66.8235 21.802 67.2155 21.802C67.5515 21.802 67.8315 21.76 68.0555 21.676C68.2888 21.592 68.5408 21.4473 68.8115 21.242L70.4635 22.908C69.7168 23.7293 68.6015 24.14 67.1175 24.14C66.1935 24.14 65.3815 23.972 64.6815 23.636C63.9815 23.2907 63.4401 22.8147 63.0575 22.208C62.6748 21.6013 62.4835 20.92 62.4835 20.164C62.4835 19.3987 62.6701 18.7173 63.0435 18.12C63.4261 17.5133 63.9441 17.042 64.5975 16.706C65.2601 16.37 66.0021 16.202 66.8235 16.202C67.5981 16.202 68.3028 16.356 68.9375 16.664C69.5815 16.972 70.0901 17.4247 70.4635 18.022C70.8461 18.6193 71.0375 19.3333 71.0375 20.164ZM66.8515 18.358C66.5248 18.358 66.2541 18.4467 66.0395 18.624C65.8248 18.8013 65.6848 19.0533 65.6195 19.38H68.0835C68.0181 19.0627 67.8781 18.8153 67.6635 18.638C67.4488 18.4513 67.1781 18.358 66.8515 18.358ZM80.1839 20.164C80.1839 20.2107 80.1699 20.458 80.1419 20.906H74.8219C74.9339 21.1953 75.1206 21.4193 75.3819 21.578C75.6433 21.7273 75.9699 21.802 76.3619 21.802C76.6979 21.802 76.9779 21.76 77.2019 21.676C77.4353 21.592 77.6873 21.4473 77.9579 21.242L79.6099 22.908C78.8633 23.7293 77.7479 24.14 76.2639 24.14C75.3399 24.14 74.5279 23.972 73.8279 23.636C73.1279 23.2907 72.5866 22.8147 72.2039 22.208C71.8213 21.6013 71.6299 20.92 71.6299 20.164C71.6299 19.3987 71.8166 18.7173 72.1899 18.12C72.5726 17.5133 73.0906 17.042 73.7439 16.706C74.4066 16.37 75.1486 16.202 75.9699 16.202C76.7446 16.202 77.4493 16.356 78.0839 16.664C78.7279 16.972 79.2366 17.4247 79.6099 18.022C79.9926 18.6193 80.1839 19.3333 80.1839 20.164ZM75.9979 18.358C75.6713 18.358 75.4006 18.4467 75.1859 18.624C74.9713 18.8013 74.8313 19.0533 74.7659 19.38H77.2299C77.1646 19.0627 77.0246 18.8153 76.8099 18.638C76.5953 18.4513 76.3246 18.358 75.9979 18.358ZM88.1421 21.69V24H80.8341V22.18L83.9981 18.652H80.9461V16.342H87.9881V18.162L84.8241 21.69H88.1421ZM97.1781 20.164C97.1781 20.2107 97.1641 20.458 97.1361 20.906H91.8161C91.9281 21.1953 92.1147 21.4193 92.3761 21.578C92.6374 21.7273 92.9641 21.802 93.3561 21.802C93.6921 21.802 93.9721 21.76 94.1961 21.676C94.4294 21.592 94.6814 21.4473 94.9521 21.242L96.6041 22.908C95.8574 23.7293 94.7421 24.14 93.2581 24.14C92.3341 24.14 91.5221 23.972 90.8221 23.636C90.1221 23.2907 89.5807 22.8147 89.1981 22.208C88.8154 21.6013 88.6241 20.92 88.6241 20.164C88.6241 19.3987 88.8107 18.7173 89.1841 18.12C89.5667 17.5133 90.0847 17.042 90.7381 16.706C91.4007 16.37 92.1427 16.202 92.9641 16.202C93.7387 16.202 94.4434 16.356 95.0781 16.664C95.7221 16.972 96.2307 17.4247 96.6041 18.022C96.9867 18.6193 97.1781 19.3333 97.1781 20.164ZM92.9921 18.358C92.6654 18.358 92.3947 18.4467 92.1801 18.624C91.9654 18.8013 91.8254 19.0533 91.7601 19.38H94.2241C94.1587 19.0627 94.0187 18.8153 93.8041 18.638C93.5894 18.4513 93.3187 18.358 92.9921 18.358ZM101.187 17.168C101.747 16.524 102.573 16.202 103.665 16.202V19.002C103.413 18.9647 103.179 18.946 102.965 18.946C101.882 18.946 101.341 19.4967 101.341 20.598V24H98.1766V16.342H101.187V17.168ZM109.377 14.2C110.283 14.2 111.071 14.3493 111.743 14.648C112.415 14.9467 112.933 15.376 113.297 15.936C113.661 16.496 113.843 17.1493 113.843 17.896C113.843 18.6427 113.661 19.296 113.297 19.856C112.933 20.416 112.415 20.8453 111.743 21.144C111.071 21.4427 110.283 21.592 109.377 21.592H107.963V24H104.659V14.2H109.377ZM109.167 19.044C109.615 19.044 109.951 18.946 110.175 18.75C110.399 18.5447 110.511 18.26 110.511 17.896C110.511 17.532 110.399 17.252 110.175 17.056C109.951 16.8507 109.615 16.748 109.167 16.748H107.963V19.044H109.167ZM118.875 24.14C118.026 24.14 117.26 23.972 116.579 23.636C115.907 23.2907 115.38 22.8193 114.997 22.222C114.614 21.6153 114.423 20.9293 114.423 20.164C114.423 19.3987 114.614 18.7173 114.997 18.12C115.38 17.5133 115.907 17.042 116.579 16.706C117.26 16.37 118.026 16.202 118.875 16.202C119.734 16.202 120.499 16.37 121.171 16.706C121.852 17.042 122.38 17.5133 122.753 18.12C123.136 18.7173 123.327 19.3987 123.327 20.164C123.327 20.9293 123.136 21.6153 122.753 22.222C122.38 22.8193 121.852 23.2907 121.171 23.636C120.499 23.972 119.734 24.14 118.875 24.14ZM118.875 21.676C119.239 21.676 119.538 21.5453 119.771 21.284C120.004 21.0133 120.121 20.64 120.121 20.164C120.121 19.688 120.004 19.3193 119.771 19.058C119.538 18.7967 119.239 18.666 118.875 18.666C118.511 18.666 118.212 18.7967 117.979 19.058C117.746 19.3193 117.629 19.688 117.629 20.164C117.629 20.64 117.746 21.0133 117.979 21.284C118.212 21.5453 118.511 21.676 118.875 21.676ZM124.317 16.342H127.481V24H124.317V16.342ZM125.899 15.726C125.33 15.726 124.868 15.5767 124.513 15.278C124.168 14.97 123.995 14.5827 123.995 14.116C123.995 13.6493 124.168 13.2667 124.513 12.968C124.868 12.66 125.33 12.506 125.899 12.506C126.478 12.506 126.94 12.6507 127.285 12.94C127.631 13.2293 127.803 13.6027 127.803 14.06C127.803 14.5453 127.631 14.9467 127.285 15.264C126.94 15.572 126.478 15.726 125.899 15.726ZM134.204 16.202C135.146 16.202 135.902 16.4867 136.472 17.056C137.05 17.6253 137.34 18.484 137.34 19.632V24H134.176V20.178C134.176 19.3007 133.863 18.862 133.238 18.862C132.883 18.862 132.594 18.988 132.37 19.24C132.155 19.4827 132.048 19.87 132.048 20.402V24H128.884V16.342H131.894V17.098C132.192 16.7993 132.538 16.5753 132.93 16.426C133.322 16.2767 133.746 16.202 134.204 16.202ZM144.356 23.734C143.88 24.0047 143.231 24.14 142.41 24.14C141.336 24.14 140.51 23.8833 139.932 23.37C139.353 22.8473 139.064 22.068 139.064 21.032V19.072H138.014V16.762H139.064V14.62H142.228V16.762H143.796V19.072H142.228V21.004C142.228 21.2373 142.288 21.4193 142.41 21.55C142.531 21.6807 142.69 21.746 142.886 21.746C143.156 21.746 143.394 21.676 143.6 21.536L144.356 23.734Z" fill="#47464C"/>
<line x1="48" y1="26.5" x2="175" y2="26.5" stroke="#47464C" stroke-opacity="0.59"/>
<g clip-path="url(#clip0_6_282)">
<path d="M39.0037 14.9043C38.8339 13.6275 38.81 11.4285 39.9958 10.6901C40.017 10.6766 40.0328 10.657 40.0514 10.6402C41.0209 10.3301 41.6919 9.89492 41.1652 9.30931L26.8633 5L3.70522 8.2197C3.70522 8.2197 1.05333 8.59874 1.29023 12.7188C1.41883 14.9612 2.12213 16.0624 2.73719 16.6044L0.836863 17.1771C0.309419 17.7627 0.980256 18.1981 1.94991 18.5076C1.96834 18.5249 1.98388 18.5444 2.00544 18.5579C3.19056 19.2969 3.16775 21.4957 2.99728 22.7727C-1.26025 23.9817 0.268056 24.3756 0.268056 24.3756L1.20199 24.6016C0.545064 25.1952 -0.107347 26.3209 0.0148627 28.4559C0.251887 32.5752 2.4301 32.8595 2.4301 32.8595L17.5846 37.7852L40.4585 32.2448C40.4585 32.2448 41.9873 31.8502 37.7286 30.6412C37.5574 29.3662 37.5336 27.1676 38.7215 26.4267C38.7433 26.4136 38.7592 26.3936 38.7769 26.3771C39.7465 26.067 40.4169 25.6322 39.8901 25.0466L38.8958 24.7464C39.5589 24.3465 40.5549 23.3015 40.7109 20.5871C40.8186 18.72 40.3315 17.6265 39.7677 16.9827L41.7328 16.5072C41.733 16.5079 43.2618 16.1133 39.0037 14.9043ZM19.8711 14.8515L23.7176 14.061L36.7167 11.3896L38.6534 10.9913C38.0346 12.1239 38.0605 13.6739 38.1629 14.6701C38.1854 14.8955 38.2112 15.1013 38.2363 15.2577L36.1165 15.7848L19.7094 19.8664L19.8711 14.8515ZM3.34799 18.8604L5.28442 19.2587L17.7682 21.825L18.8588 22.0484L22.1294 22.7206L22.2907 27.7356L5.42781 23.5402L3.76538 23.1271C3.78982 22.9704 3.81565 22.7648 3.83908 22.5388C3.94086 21.5433 3.96731 19.993 3.34799 18.8604ZM2.59568 12.5205C2.57224 11.4246 2.76753 10.6321 3.16223 10.2292C3.41342 9.972 3.70986 9.91848 3.91316 9.91848C4.02058 9.91848 4.09792 9.9334 4.10318 9.9334L14.0814 13.1864L19.0596 14.8095L18.8963 19.8595L4.93032 15.944L4.1933 15.7376C4.16623 15.7299 4.1295 15.7246 4.10118 15.7234C4.04364 15.7193 2.66286 15.5922 2.59568 12.5205ZM17.6207 35.5974L2.91806 31.4753C2.89086 31.4674 2.85451 31.4622 2.82619 31.4608C2.76765 31.4569 1.38624 31.3299 1.31943 28.259C1.29562 27.1617 1.49191 26.3699 1.88586 25.9667C2.13768 25.7095 2.43424 25.656 2.63717 25.656C2.74484 25.656 2.82192 25.6704 2.82756 25.6704C2.82756 25.6704 2.82819 25.6704 2.82756 25.6704L17.783 30.5473L17.6207 35.5974ZM36.8866 30.4073C36.9098 30.6334 36.9356 30.8388 36.9607 30.9955L18.4334 35.6045L18.5954 30.5895L22.5563 29.7752L23.1413 29.9167L25.3338 29.2041L35.4404 27.1273L37.3778 26.7287C36.7584 27.8612 36.784 29.4118 36.8866 30.4073ZM37.9071 23.5917C37.8734 23.5925 37.8397 23.597 37.808 23.607L36.4106 23.9982L23.1057 27.7289L22.943 22.679L27.3082 21.2552L37.878 17.8081C37.8794 17.8075 38.4341 17.6843 38.8412 18.0983C39.2353 18.5011 39.4308 19.2937 39.4077 20.3896C39.3388 23.4602 37.9574 23.5878 37.9071 23.5917Z" fill="#47464C"/>
</g>
<defs>
<clipPath id="clip0_6_282">
<rect width="42" height="42" fill="white"/>
</clipPath>
</defs>
</svg>
